# Blender 5.0.1
# www.blender.org
mtllib cube.mtl
o Cube
v -0.500000 0.500000 0.500000
v -0.500000 -0.500000 0.500000
v -0.500000 0.500000 -0.500000
v -0.500000 -0.500000 -0.500000
v 0.500000 0.500000 0.500000
v 0.500000 -0.500000 0.500000
v 0.500000 0.500000 -0.500000
v 0.500000 -0.500000 -0.500000
vn -0.0000 1.0000 -0.0000
vn -0.0000 -0.0000 -1.0000
vn 1.0000 -0.0000 -0.0000
vn -0.0000 -1.0000 -0.0000
vn -1.0000 -0.0000 -0.0000
vn -0.0000 -0.0000 1.0000
vt 0.999799 0.997967
vt 0.000201 -0.011384
vt 0.000201 0.997967
vt 0.000201 2.007723
vt 0.999799 0.998372
vt 0.000201 0.998372
vt 0.999799 2.007723
vt 0.999799 -0.011384
s 0
usemtl マテリアル
f 5/1/1 3/2/1 1/3/1
f 3/4/2 8/5/2 4/6/2
f 7/7/3 6/6/3 8/5/3
f 2/4/4 8/5/4 6/7/4
f 1/3/5 4/8/5 2/2/5
f 5/1/6 2/2/6 6/8/6
f 5/1/1 7/8/1 3/2/1
f 3/4/2 7/7/2 8/5/2
f 7/7/3 5/4/3 6/6/3
f 2/4/4 4/6/4 8/5/4
f 1/3/5 3/1/5 4/8/5
f 5/1/6 1/3/6 2/2/6
